Coordinates
version=1
nRows=16
nColumns=40
inDegrees=yes

Units are S.I. units (second, meters, Newtons, ...)
If the header above contains a line with 'inDegrees', this indicates whether rotational values are in degrees (yes) or radians (no).

endheader
time	pelvis_tilt	pelvis_list	pelvis_rotation	pelvis_tx	pelvis_ty	pelvis_tz	hip_flexion_r	hip_adduction_r	hip_rotation_r	knee_angle_r	knee_angle_r_beta	ankle_angle_r	subtalar_angle_r	mtp_angle_r	hip_flexion_l	hip_adduction_l	hip_rotation_l	knee_angle_l	knee_angle_l_beta	ankle_angle_l	subtalar_angle_l	mtp_angle_l	lumbar_extension	lumbar_bending	lumbar_rotation	arm_flex_r	arm_add_r	arm_rot_r	elbow_flex_r	pro_sup_r	wrist_flex_r	wrist_dev_r	arm_flex_l	arm_add_l	arm_rot_l	elbow_flex_l	pro_sup_l	wrist_flex_l	wrist_dev_l
      3.83000000	    -10.14408896	      3.02137107	      0.81701030	     -0.22135390	      1.32063280	     -0.90646212	     15.28359764	    -11.67063077	    -10.17344644	     10.54945492	      0.18412272	    -36.72721295	      0.00000000	      0.00000000	     17.06980890	     -7.67693931	    -10.90265529	     12.12686832	      0.21165378	    -32.70534316	      0.00000000	      0.00000000	     -9.68260475	     -6.75523701	     -1.36851967	    -23.35353835	    -31.79351274	      9.74784634	     85.09145075	     44.99224546	      0.00000000	      0.00000000	    -29.06612167	    -42.00705120	     -0.80764402	     75.89417737	     44.99224546	      0.00000000	      0.00000000
      3.83500000	     -9.93794405	      2.76851887	      1.02867273	     -0.22106284	      1.32915675	     -0.90680112	     14.70392822	    -11.48270047	    -10.91290178	      9.63722153	      0.16820125	    -35.85796491	      0.00000000	      0.00000000	     16.72766203	     -7.81505236	     -9.66881639	     11.65938214	      0.20349461	    -31.12726970	      0.00000000	      0.00000000	     -9.69142461	     -6.40538979	     -1.12502240	    -23.28138658	    -31.86456694	      9.90797886	     84.87774216	     44.99247490	      0.00000000	      0.00000000	    -28.78921620	    -41.62001858	     -0.71579150	     75.88455989	     44.99247490	      0.00000000	      0.00000000
      3.84000000	     -9.98194334	      2.74815436	      0.89417409	     -0.22092427	      1.33710691	     -0.90669082	     14.69083272	    -11.49021027	    -11.39309951	      9.27307839	      0.16184575	    -35.25855873	      0.00000000	      0.00000000	     16.56814142	     -7.84119887	     -9.51745926	     11.09755748	      0.19368892	    -30.08163778	      0.00000000	      0.00000000	     -9.54716008	     -6.36359581	     -1.04781979	    -23.27170717	    -31.88193253	      9.93922666	     84.83691364	     44.99252275	      0.00000000	      0.00000000	    -28.74771921	    -41.53420890	     -0.69734919	     75.88253049	     44.99252275	      0.00000000	      0.00000000
      3.84500000	    -10.06713619	      2.65615170	      0.85388352	     -0.22097899	      1.34461748	     -0.90656087	     14.66327724	    -11.43530601	    -12.14156625	      8.74653664	      0.15265586	    -34.70435178	      0.00000000	      0.00000000	     16.50751953	     -7.95351018	     -9.36084673	     10.58563781	      0.18475423	    -29.01398531	      0.00000000	      0.00000000	     -9.36080638	     -6.30338073	     -0.89107085	    -23.26000051	    -31.90814084	      9.97904153	     84.78777207	     44.99258461	      0.00000000	      0.00000000	    -28.71623200	    -41.41247583	     -0.67465849	     75.87989497	     44.99258461	      0.00000000	      0.00000000
      3.85000000	    -10.26910369	      2.59570463	      0.79147926	     -0.22095090	      1.35182353	     -0.90650402	     14.83399868	    -11.42715565	    -12.52659410	      8.41741880	      0.14691167	    -34.31507710	      0.00000000	      0.00000000	     16.63147779	     -8.05827579	     -9.70296597	     10.21967441	      0.17836697	    -28.68421138	      0.00000000	      0.00000000	     -9.36534327	     -6.27633938	     -0.86598458	    -23.25979028	    -31.91347627	      9.98577649	     84.77917356	     44.99259508	      0.00000000	      0.00000000	    -28.71032918	    -41.39372168	     -0.67153982	     75.87944718	     44.99259508	      0.00000000	      0.00000000
      3.85500000	    -10.07883557	      2.42148559	      0.77596906	     -0.22092059	      1.35929218	     -0.90643639	     14.39531348	    -11.25730947	    -12.73451270	      7.85283164	      0.13705777	    -32.87089141	      0.00000000	      0.00000000	     16.29238051	     -8.28113897	    -10.02372824	      9.84283458	      0.17178987	    -27.65274961	      0.00000000	      0.00000000	     -9.16874317	     -6.03903347	     -0.61822361	    -23.27356631	    -31.95524832	     10.03504019	     84.71348771	     44.99267143	      0.00000000	      0.00000000	    -28.69665526	    -41.24394055	     -0.65304446	     75.87617076	     44.99267143	      0.00000000	      0.00000000
      3.86000000	    -10.06657437	      2.35272206	      0.69820933	     -0.22119773	      1.36615249	     -0.90627653	     14.31351745	    -11.22754995	    -12.91491525	      7.49217676	      0.13076315	    -32.18973665	      0.00000000	      0.00000000	     16.25395791	     -8.44483347	    -10.77555653	      9.66547189	      0.16869431	    -27.02728984	      0.00000000	      0.00000000	     -9.26505302	     -5.86423696	     -0.25381476	    -23.33611771	    -32.05910117	     10.13653699	     84.57521998	     44.99283159	      0.00000000	      0.00000000	    -28.63921251	    -40.99269851	     -0.62923446	     75.86922908	     44.99283159	      0.00000000	      0.00000000
      3.86500000	    -10.22476670	      2.30819875	      0.71740354	     -0.22161676	      1.37257302	     -0.90627122	     14.45707287	    -11.26909226	    -13.14409052	      7.25866475	      0.12668760	    -31.89700315	      0.00000000	      0.00000000	     16.36097748	     -8.54750721	    -11.22841553	      9.32552984	      0.16276120	    -26.78194884	      0.00000000	      0.00000000	     -9.27095528	     -5.86571380	     -0.23768155	    -23.34164566	    -32.06618430	     10.14253443	     84.56669131	     44.99284169	      0.00000000	      0.00000000	    -28.63523045	    -40.98145813	     -0.62885171	     75.86878754	     44.99284169	      0.00000000	      0.00000000
      3.87000000	    -10.05130262	      2.37835973	      0.52507159	     -0.22178607	      1.37910902	     -0.90590228	     14.18155854	    -11.35084340	    -13.01798553	      6.84469196	      0.11946241	    -30.98982254	      0.00000000	      0.00000000	     16.06634705	     -8.60881477	    -12.15602642	      9.14182495	      0.15955494	    -26.32722612	      0.00000000	      0.00000000	     -9.11969966	     -5.89313508	     -0.11557261	    -23.38036044	    -32.10509948	     10.17502445	     84.51827615	     44.99289481	      0.00000000	      0.00000000	    -28.63529428	    -40.91914671	     -0.63050998	     75.86646046	     44.99289481	      0.00000000	      0.00000000
      3.87500000	    -10.30794499	      2.29906769	      0.20517351	     -0.22248694	      1.38488644	     -0.90491353	     14.59489892	    -11.26992152	    -13.84977450	      6.70696134	      0.11705856	    -30.83523837	      0.00000000	      0.00000000	     16.21436018	     -8.90860884	    -12.92871756	      8.85502053	      0.15454926	    -26.15386213	      0.00000000	      0.00000000	     -9.12988850	     -5.92092291	     -0.06678465	    -23.38426493	    -32.11657145	     10.18310990	     84.50700773	     44.99290882	      0.00000000	      0.00000000	    -28.64062559	    -40.90439810	     -0.63207668	     75.86584461	     44.99290882	      0.00000000	      0.00000000
      3.88000000	    -10.23861012	      2.43601733	      0.03758592	     -0.22281216	      1.39070550	     -0.90462013	     14.61890518	    -11.48420757	    -13.53408873	      6.78185231	      0.11836565	    -30.07384867	      0.00000000	      0.00000000	     16.19844027	     -8.93386515	    -14.19816176	      9.09224510	      0.15868961	    -25.81858619	      0.00000000	      0.00000000	     -9.09002537	     -6.11010939	      0.53571138	    -23.49624764	    -32.26226757	     10.30208406	     84.33422232	     44.99309284	      0.00000000	      0.00000000	    -28.72272214	    -40.75619472	     -0.66490841	     75.85768900	     44.99309284	      0.00000000	      0.00000000
      3.88500000	    -10.35954348	      2.45938289	      0.01619352	     -0.22338609	      1.39610661	     -0.90444434	     14.75428316	    -11.59358748	    -13.75711847	      6.61679630	      0.11548488	    -29.95275823	      0.00000000	      0.00000000	     16.30438421	     -8.99619922	    -14.55536725	      8.95060109	      0.15621746	    -25.79322195	      0.00000000	      0.00000000	     -9.08520994	     -6.13106401	      0.55887676	    -23.50522227	    -32.26995202	     10.30964860	     84.32325343	     44.99310391	      0.00000000	      0.00000000	    -28.72535278	    -40.75301005	     -0.66766202	     75.85719365	     44.99310391	      0.00000000	      0.00000000
      3.89000000	    -10.45590591	      2.69355847	     -0.21015775	     -0.22399111	      1.40123361	     -0.90394805	     14.99043091	    -11.89664352	    -13.32524201	      6.66674212	      0.11635660	    -29.56899068	      0.00000000	      0.00000000	     16.41100575	     -8.92708453	    -15.59775124	      8.99763084	      0.15703828	    -26.07497785	      0.00000000	      0.00000000	     -8.84048830	     -6.58234486	      0.99219861	    -23.70239079	    -32.40513707	     10.47831965	     84.08984892	     44.99332530	      0.00000000	      0.00000000	    -28.78934040	    -40.73722643	     -0.73234324	     75.84717397	     44.99332530	      0.00000000	      0.00000000
      3.89500000	    -10.46412559	      2.68513376	     -0.17891379	     -0.22439759	      1.40627269	     -0.90379869	     15.01500828	    -11.99380991	    -13.32059981	      6.65766812	      0.11619823	    -29.56576299	      0.00000000	      0.00000000	     16.40531823	     -9.01707311	    -15.60903541	      8.99140304	      0.15692959	    -26.07476264	      0.00000000	      0.00000000	     -8.84043774	     -6.58268855	      0.99277738	    -23.70278420	    -32.40534643	     10.47866474	     84.08937710	     44.99332573	      0.00000000	      0.00000000	    -28.78938721	    -40.73735420	     -0.73248358	     75.84715413	     44.99332573	      0.00000000	      0.00000000
      3.90000000	    -10.55314833	      2.85290253	     -0.25575473	     -0.22479408	      1.41092956	     -0.90354536	     15.22572254	    -12.27594716	    -12.90295010	      6.88539327	      0.12017278	    -29.26744760	      0.00000000	      0.00000000	     16.58951962	     -8.98299594	    -16.47128299	      9.21475940	      0.16082789	    -26.49140407	      0.00000000	      0.00000000	     -8.72111238	     -6.93470197	      1.32195349	    -23.99085427	    -32.52932347	     10.74984198	     83.73447416	     44.99363807	      0.00000000	      0.00000000	    -28.80464037	    -40.86699187	     -0.83432666	     75.83268593	     44.99363807	      0.00000000	      0.00000000
      3.90500000	    -10.50201890	      2.85137376	     -0.13554269	     -0.22483051	      1.41556605	     -0.90355741	     15.12525409	    -12.41278315	    -12.75645675	      6.93938040	      0.12111504	    -29.32125672	      0.00000000	      0.00000000	     16.57357523	     -9.04220231	    -16.49527820	      9.34090937	      0.16302962	    -26.64862907	      0.00000000	      0.00000000	     -8.71625733	     -6.93330372	      1.32266569	    -24.00260086	    -32.53192153	     10.76071556	     83.72038757	     44.99364994	      0.00000000	      0.00000000	    -28.80128258	    -40.87474082	     -0.83797625	     75.83212605	     44.99364994	      0.00000000	      0.00000000
